<?xml version="1.0" encoding="iso-8859-1"?>
<!-- Uploaded to: SVG Repo, www.svgrepo.com, Generator: SVG Repo Mixer Tools -->
<svg version="1.1" id="Layer_1" xmlns="http://www.w3.org/2000/svg" xmlns:xlink="http://www.w3.org/1999/xlink" 
	 viewBox="0 0 446 446" xml:space="preserve">
<g>
	<g id="XMLID_4_">
		<g>
			<rect x="180.5" y="388.81" style="fill:#E6E6E6;" width="183.5" height="29.03"/>
			<path style="fill:#F2F2F2;" d="M364,363.46v25.35H180.5h-48H82c0-1.36,0.09-2.7,0.28-4.01c1.95-14.14,14.08-25.03,28.75-25.03
				h21.47h48H364V363.46z"/>
			<polygon style="fill:#F4581B;" points="364,0 364,359.77 180.5,359.77 132.5,359.77 111.03,359.77 111.03,0 			"/>
			<polygon style="fill:#F4581B;" points="180.5,417.84 180.5,446 156.5,428 132.5,446 132.5,417.84 132.5,388.81 180.5,388.81 			
				"/>
			<path style="fill:#E6E6E6;" d="M132.5,388.81v29.03h-21.47c-8.02,0-15.27-3.25-20.53-8.5c-5.25-5.26-8.5-12.52-8.5-20.53H132.5z"
				/>
			<path style="fill:#DD4B1D;" d="M111.03,0v359.77c-14.67,0-26.8,10.89-28.75,25.03L82,384.77V29.03C82,13,95,0,111.03,0z"/>
		</g>
	</g>
	<g>
		<path style="fill:#E6E6E6;" d="M274.439,123.494c0-22.528-18.263-40.791-40.791-40.791s-40.791,18.263-40.791,40.791
			s18.263,53.342,40.791,53.342S274.439,146.022,274.439,123.494z"/>
		<path style="fill:#E6E6E6;" d="M307.397,248.559v0.06c-19.49,17.68-45.37,28.45-73.75,28.45s-54.25-10.77-73.75-28.45v-0.06
			c0-28.18,15.81-52.66,39.04-65.07c9.81,8.78,21.72,14.35,34.71,14.35s24.9-5.57,34.71-14.35
			C291.587,195.889,307.397,220.369,307.397,248.559z"/>
	</g>
</g>
</svg>